<mxfile host="app.diagrams.net" modified="2020-10-28T12:44:51.970Z" agent="5.0 (Windows)" etag="Bv_GW5XmH-CjuB7hNC-z" version="13.8.5" type="github">
  <diagram id="0zMnlCBC_XrXp4tMdyWC" name="Page-1">
    <mxGraphModel dx="1362" dy="1514" grid="1" gridSize="10" guides="1" tooltips="1" connect="1" arrows="1" fold="1" page="1" pageScale="1" pageWidth="1400" pageHeight="850" math="0" shadow="0">
      <root>
        <mxCell id="0" />
        <mxCell id="1" parent="0" />
        <mxCell id="youw9uDm0TqAn4-asEQf-1" value="" style="endArrow=none;html=1;strokeWidth=3;" edge="1" parent="1">
          <mxGeometry width="50" height="50" relative="1" as="geometry">
            <mxPoint x="120" y="280" as="sourcePoint" />
            <mxPoint x="120" y="240" as="targetPoint" />
          </mxGeometry>
        </mxCell>
        <mxCell id="youw9uDm0TqAn4-asEQf-31" style="edgeStyle=none;rounded=0;orthogonalLoop=1;jettySize=auto;html=1;strokeWidth=1;" edge="1" parent="1" source="youw9uDm0TqAn4-asEQf-2">
          <mxGeometry relative="1" as="geometry">
            <mxPoint x="320" y="260.0000000000001" as="targetPoint" />
          </mxGeometry>
        </mxCell>
        <mxCell id="youw9uDm0TqAn4-asEQf-2" value="" style="ellipse;whiteSpace=wrap;html=1;aspect=fixed;" vertex="1" parent="1">
          <mxGeometry x="200" y="240" width="40" height="40" as="geometry" />
        </mxCell>
        <mxCell id="youw9uDm0TqAn4-asEQf-3" value="" style="endArrow=none;html=1;strokeWidth=3;" edge="1" parent="1">
          <mxGeometry width="50" height="50" relative="1" as="geometry">
            <mxPoint x="120" y="440" as="sourcePoint" />
            <mxPoint x="120" y="400" as="targetPoint" />
          </mxGeometry>
        </mxCell>
        <mxCell id="youw9uDm0TqAn4-asEQf-4" value="" style="ellipse;whiteSpace=wrap;html=1;aspect=fixed;" vertex="1" parent="1">
          <mxGeometry x="200" y="400" width="40" height="40" as="geometry" />
        </mxCell>
        <mxCell id="youw9uDm0TqAn4-asEQf-32" style="edgeStyle=none;rounded=0;orthogonalLoop=1;jettySize=auto;html=1;strokeWidth=1;" edge="1" parent="1" source="youw9uDm0TqAn4-asEQf-5">
          <mxGeometry relative="1" as="geometry">
            <mxPoint x="520" y="260.0000000000001" as="targetPoint" />
          </mxGeometry>
        </mxCell>
        <mxCell id="youw9uDm0TqAn4-asEQf-5" value="" style="ellipse;whiteSpace=wrap;html=1;aspect=fixed;" vertex="1" parent="1">
          <mxGeometry x="400" y="240" width="40" height="40" as="geometry" />
        </mxCell>
        <mxCell id="youw9uDm0TqAn4-asEQf-6" value="" style="endArrow=none;html=1;strokeWidth=3;" edge="1" parent="1">
          <mxGeometry width="50" height="50" relative="1" as="geometry">
            <mxPoint x="320" y="280" as="sourcePoint" />
            <mxPoint x="320" y="240" as="targetPoint" />
          </mxGeometry>
        </mxCell>
        <mxCell id="youw9uDm0TqAn4-asEQf-7" value="" style="ellipse;whiteSpace=wrap;html=1;aspect=fixed;" vertex="1" parent="1">
          <mxGeometry x="400" y="160" width="40" height="40" as="geometry" />
        </mxCell>
        <mxCell id="youw9uDm0TqAn4-asEQf-11" value="" style="endArrow=none;html=1;strokeWidth=3;" edge="1" parent="1">
          <mxGeometry width="50" height="50" relative="1" as="geometry">
            <mxPoint x="520" y="280" as="sourcePoint" />
            <mxPoint x="520" y="240" as="targetPoint" />
          </mxGeometry>
        </mxCell>
        <mxCell id="youw9uDm0TqAn4-asEQf-82" style="edgeStyle=none;rounded=0;orthogonalLoop=1;jettySize=auto;html=1;strokeWidth=1;" edge="1" parent="1" source="youw9uDm0TqAn4-asEQf-13">
          <mxGeometry relative="1" as="geometry">
            <mxPoint x="720" y="220" as="targetPoint" />
          </mxGeometry>
        </mxCell>
        <mxCell id="youw9uDm0TqAn4-asEQf-83" style="edgeStyle=none;rounded=0;orthogonalLoop=1;jettySize=auto;html=1;strokeWidth=1;" edge="1" parent="1" source="youw9uDm0TqAn4-asEQf-13">
          <mxGeometry relative="1" as="geometry">
            <mxPoint x="720" y="380" as="targetPoint" />
          </mxGeometry>
        </mxCell>
        <mxCell id="youw9uDm0TqAn4-asEQf-84" style="edgeStyle=none;rounded=0;orthogonalLoop=1;jettySize=auto;html=1;strokeWidth=1;" edge="1" parent="1" source="youw9uDm0TqAn4-asEQf-13">
          <mxGeometry relative="1" as="geometry">
            <mxPoint x="720" y="500" as="targetPoint" />
          </mxGeometry>
        </mxCell>
        <mxCell id="youw9uDm0TqAn4-asEQf-13" value="" style="ellipse;whiteSpace=wrap;html=1;aspect=fixed;" vertex="1" parent="1">
          <mxGeometry x="600" y="320" width="40" height="40" as="geometry" />
        </mxCell>
        <mxCell id="youw9uDm0TqAn4-asEQf-88" style="edgeStyle=none;rounded=0;orthogonalLoop=1;jettySize=auto;html=1;strokeWidth=1;" edge="1" parent="1" source="youw9uDm0TqAn4-asEQf-27">
          <mxGeometry relative="1" as="geometry">
            <mxPoint x="1120" y="260" as="targetPoint" />
          </mxGeometry>
        </mxCell>
        <mxCell id="youw9uDm0TqAn4-asEQf-89" style="edgeStyle=none;rounded=0;orthogonalLoop=1;jettySize=auto;html=1;strokeWidth=1;" edge="1" parent="1" source="youw9uDm0TqAn4-asEQf-27">
          <mxGeometry relative="1" as="geometry">
            <mxPoint x="1120" y="420" as="targetPoint" />
          </mxGeometry>
        </mxCell>
        <mxCell id="youw9uDm0TqAn4-asEQf-27" value="" style="ellipse;whiteSpace=wrap;html=1;aspect=fixed;" vertex="1" parent="1">
          <mxGeometry x="1000" y="320" width="40" height="40" as="geometry" />
        </mxCell>
        <mxCell id="youw9uDm0TqAn4-asEQf-28" value="" style="endArrow=none;html=1;strokeWidth=3;" edge="1" parent="1">
          <mxGeometry width="50" height="50" relative="1" as="geometry">
            <mxPoint x="1120" y="280" as="sourcePoint" />
            <mxPoint x="1120" y="240" as="targetPoint" />
          </mxGeometry>
        </mxCell>
        <mxCell id="youw9uDm0TqAn4-asEQf-29" value="" style="endArrow=none;html=1;strokeWidth=3;" edge="1" parent="1">
          <mxGeometry width="50" height="50" relative="1" as="geometry">
            <mxPoint x="1120" y="440.0000000000001" as="sourcePoint" />
            <mxPoint x="1120" y="400.0000000000001" as="targetPoint" />
          </mxGeometry>
        </mxCell>
        <mxCell id="youw9uDm0TqAn4-asEQf-30" value="" style="endArrow=classic;html=1;strokeWidth=1;" edge="1" parent="1">
          <mxGeometry width="50" height="50" relative="1" as="geometry">
            <mxPoint x="120" y="260" as="sourcePoint" />
            <mxPoint x="200" y="260" as="targetPoint" />
          </mxGeometry>
        </mxCell>
        <mxCell id="youw9uDm0TqAn4-asEQf-33" style="edgeStyle=none;rounded=0;orthogonalLoop=1;jettySize=auto;html=1;strokeWidth=1;" edge="1" parent="1" target="youw9uDm0TqAn4-asEQf-7">
          <mxGeometry relative="1" as="geometry">
            <mxPoint x="530" y="270.0000000000001" as="targetPoint" />
            <mxPoint x="520" y="260" as="sourcePoint" />
          </mxGeometry>
        </mxCell>
        <mxCell id="youw9uDm0TqAn4-asEQf-34" style="edgeStyle=none;rounded=0;orthogonalLoop=1;jettySize=auto;html=1;strokeWidth=1;exitX=0.03;exitY=0.676;exitDx=0;exitDy=0;exitPerimeter=0;" edge="1" parent="1" source="youw9uDm0TqAn4-asEQf-7">
          <mxGeometry relative="1" as="geometry">
            <mxPoint x="320" y="250" as="targetPoint" />
            <mxPoint x="390" y="200" as="sourcePoint" />
          </mxGeometry>
        </mxCell>
        <mxCell id="youw9uDm0TqAn4-asEQf-35" value="" style="endArrow=classic;html=1;strokeWidth=1;" edge="1" parent="1">
          <mxGeometry width="50" height="50" relative="1" as="geometry">
            <mxPoint x="320" y="259.5800000000001" as="sourcePoint" />
            <mxPoint x="400" y="259.5800000000001" as="targetPoint" />
          </mxGeometry>
        </mxCell>
        <mxCell id="youw9uDm0TqAn4-asEQf-36" value="" style="ellipse;whiteSpace=wrap;html=1;aspect=fixed;fillColor=#000000;strokeColor=none;" vertex="1" parent="1">
          <mxGeometry x="408" y="169" width="7" height="7" as="geometry" />
        </mxCell>
        <mxCell id="youw9uDm0TqAn4-asEQf-38" style="edgeStyle=none;rounded=0;orthogonalLoop=1;jettySize=auto;html=1;strokeWidth=1;" edge="1" source="youw9uDm0TqAn4-asEQf-39" parent="1">
          <mxGeometry relative="1" as="geometry">
            <mxPoint x="519.5" y="420.0000000000001" as="targetPoint" />
          </mxGeometry>
        </mxCell>
        <mxCell id="youw9uDm0TqAn4-asEQf-39" value="" style="ellipse;whiteSpace=wrap;html=1;aspect=fixed;" vertex="1" parent="1">
          <mxGeometry x="399.5" y="400" width="40" height="40" as="geometry" />
        </mxCell>
        <mxCell id="youw9uDm0TqAn4-asEQf-40" value="" style="endArrow=none;html=1;strokeWidth=3;" edge="1" parent="1">
          <mxGeometry width="50" height="50" relative="1" as="geometry">
            <mxPoint x="319.5" y="440" as="sourcePoint" />
            <mxPoint x="319.5" y="400" as="targetPoint" />
          </mxGeometry>
        </mxCell>
        <mxCell id="youw9uDm0TqAn4-asEQf-41" value="" style="ellipse;whiteSpace=wrap;html=1;aspect=fixed;" vertex="1" parent="1">
          <mxGeometry x="400" y="480" width="40" height="40" as="geometry" />
        </mxCell>
        <mxCell id="youw9uDm0TqAn4-asEQf-42" value="" style="endArrow=none;html=1;strokeWidth=3;" edge="1" parent="1">
          <mxGeometry width="50" height="50" relative="1" as="geometry">
            <mxPoint x="519.5" y="440" as="sourcePoint" />
            <mxPoint x="519.5" y="400" as="targetPoint" />
          </mxGeometry>
        </mxCell>
        <mxCell id="youw9uDm0TqAn4-asEQf-43" style="edgeStyle=none;rounded=0;orthogonalLoop=1;jettySize=auto;html=1;strokeWidth=1;" edge="1" target="youw9uDm0TqAn4-asEQf-41" parent="1">
          <mxGeometry relative="1" as="geometry">
            <mxPoint x="529.5" y="430.0000000000001" as="targetPoint" />
            <mxPoint x="519.5" y="420" as="sourcePoint" />
          </mxGeometry>
        </mxCell>
        <mxCell id="youw9uDm0TqAn4-asEQf-44" style="edgeStyle=none;rounded=0;orthogonalLoop=1;jettySize=auto;html=1;strokeWidth=1;" edge="1" parent="1">
          <mxGeometry relative="1" as="geometry">
            <mxPoint x="319.5" y="420" as="targetPoint" />
            <mxPoint x="404" y="488" as="sourcePoint" />
          </mxGeometry>
        </mxCell>
        <mxCell id="youw9uDm0TqAn4-asEQf-45" value="" style="endArrow=classic;html=1;strokeWidth=1;" edge="1" parent="1">
          <mxGeometry width="50" height="50" relative="1" as="geometry">
            <mxPoint x="319.5" y="419.58000000000015" as="sourcePoint" />
            <mxPoint x="399.5" y="419.58000000000015" as="targetPoint" />
          </mxGeometry>
        </mxCell>
        <mxCell id="youw9uDm0TqAn4-asEQf-48" style="edgeStyle=none;rounded=0;orthogonalLoop=1;jettySize=auto;html=1;strokeWidth=1;" edge="1" source="youw9uDm0TqAn4-asEQf-49" parent="1">
          <mxGeometry relative="1" as="geometry">
            <mxPoint x="920" y="500" as="targetPoint" />
          </mxGeometry>
        </mxCell>
        <mxCell id="youw9uDm0TqAn4-asEQf-49" value="" style="ellipse;whiteSpace=wrap;html=1;aspect=fixed;" vertex="1" parent="1">
          <mxGeometry x="800" y="480" width="40" height="40" as="geometry" />
        </mxCell>
        <mxCell id="youw9uDm0TqAn4-asEQf-50" value="" style="endArrow=none;html=1;strokeWidth=3;" edge="1" parent="1">
          <mxGeometry width="50" height="50" relative="1" as="geometry">
            <mxPoint x="720" y="520" as="sourcePoint" />
            <mxPoint x="720" y="480" as="targetPoint" />
          </mxGeometry>
        </mxCell>
        <mxCell id="youw9uDm0TqAn4-asEQf-51" value="" style="ellipse;whiteSpace=wrap;html=1;aspect=fixed;" vertex="1" parent="1">
          <mxGeometry x="799.67" y="540" width="40" height="40" as="geometry" />
        </mxCell>
        <mxCell id="youw9uDm0TqAn4-asEQf-52" value="" style="endArrow=none;html=1;strokeWidth=3;" edge="1" parent="1">
          <mxGeometry width="50" height="50" relative="1" as="geometry">
            <mxPoint x="920" y="520" as="sourcePoint" />
            <mxPoint x="920" y="480" as="targetPoint" />
          </mxGeometry>
        </mxCell>
        <mxCell id="youw9uDm0TqAn4-asEQf-53" style="edgeStyle=none;rounded=0;orthogonalLoop=1;jettySize=auto;html=1;strokeWidth=1;" edge="1" target="youw9uDm0TqAn4-asEQf-51" parent="1">
          <mxGeometry relative="1" as="geometry">
            <mxPoint x="930" y="510.0000000000001" as="targetPoint" />
            <mxPoint x="920" y="500" as="sourcePoint" />
          </mxGeometry>
        </mxCell>
        <mxCell id="youw9uDm0TqAn4-asEQf-54" style="edgeStyle=none;rounded=0;orthogonalLoop=1;jettySize=auto;html=1;strokeWidth=1;" edge="1" source="youw9uDm0TqAn4-asEQf-51" parent="1">
          <mxGeometry relative="1" as="geometry">
            <mxPoint x="720" y="500" as="targetPoint" />
            <mxPoint x="930" y="510.0000000000001" as="sourcePoint" />
          </mxGeometry>
        </mxCell>
        <mxCell id="youw9uDm0TqAn4-asEQf-55" value="" style="endArrow=classic;html=1;strokeWidth=1;" edge="1" parent="1">
          <mxGeometry width="50" height="50" relative="1" as="geometry">
            <mxPoint x="720" y="499.58000000000015" as="sourcePoint" />
            <mxPoint x="800" y="499.58000000000015" as="targetPoint" />
          </mxGeometry>
        </mxCell>
        <mxCell id="youw9uDm0TqAn4-asEQf-58" style="edgeStyle=none;rounded=0;orthogonalLoop=1;jettySize=auto;html=1;strokeWidth=1;" edge="1" source="youw9uDm0TqAn4-asEQf-59" parent="1">
          <mxGeometry relative="1" as="geometry">
            <mxPoint x="919.17" y="380" as="targetPoint" />
          </mxGeometry>
        </mxCell>
        <mxCell id="youw9uDm0TqAn4-asEQf-59" value="" style="ellipse;whiteSpace=wrap;html=1;aspect=fixed;" vertex="1" parent="1">
          <mxGeometry x="799.17" y="360" width="40" height="40" as="geometry" />
        </mxCell>
        <mxCell id="youw9uDm0TqAn4-asEQf-60" value="" style="endArrow=none;html=1;strokeWidth=3;" edge="1" parent="1">
          <mxGeometry width="50" height="50" relative="1" as="geometry">
            <mxPoint x="719.17" y="400" as="sourcePoint" />
            <mxPoint x="719.17" y="360" as="targetPoint" />
          </mxGeometry>
        </mxCell>
        <mxCell id="youw9uDm0TqAn4-asEQf-61" value="" style="ellipse;whiteSpace=wrap;html=1;aspect=fixed;" vertex="1" parent="1">
          <mxGeometry x="800" y="300" width="40" height="40" as="geometry" />
        </mxCell>
        <mxCell id="youw9uDm0TqAn4-asEQf-62" value="" style="endArrow=none;html=1;strokeWidth=3;" edge="1" parent="1">
          <mxGeometry width="50" height="50" relative="1" as="geometry">
            <mxPoint x="919.17" y="400" as="sourcePoint" />
            <mxPoint x="919.17" y="360" as="targetPoint" />
          </mxGeometry>
        </mxCell>
        <mxCell id="youw9uDm0TqAn4-asEQf-63" style="edgeStyle=none;rounded=0;orthogonalLoop=1;jettySize=auto;html=1;strokeWidth=1;" edge="1" target="youw9uDm0TqAn4-asEQf-61" parent="1">
          <mxGeometry relative="1" as="geometry">
            <mxPoint x="929.17" y="390.0000000000001" as="targetPoint" />
            <mxPoint x="919.17" y="380" as="sourcePoint" />
          </mxGeometry>
        </mxCell>
        <mxCell id="youw9uDm0TqAn4-asEQf-64" style="edgeStyle=none;rounded=0;orthogonalLoop=1;jettySize=auto;html=1;strokeWidth=1;" edge="1" source="youw9uDm0TqAn4-asEQf-61" parent="1">
          <mxGeometry relative="1" as="geometry">
            <mxPoint x="719.17" y="380" as="targetPoint" />
            <mxPoint x="929.17" y="390.0000000000001" as="sourcePoint" />
          </mxGeometry>
        </mxCell>
        <mxCell id="youw9uDm0TqAn4-asEQf-65" value="" style="endArrow=classic;html=1;strokeWidth=1;" edge="1" parent="1">
          <mxGeometry width="50" height="50" relative="1" as="geometry">
            <mxPoint x="719.17" y="379.58000000000015" as="sourcePoint" />
            <mxPoint x="799.17" y="379.58000000000015" as="targetPoint" />
          </mxGeometry>
        </mxCell>
        <mxCell id="youw9uDm0TqAn4-asEQf-68" style="edgeStyle=none;rounded=0;orthogonalLoop=1;jettySize=auto;html=1;strokeWidth=1;" edge="1" source="youw9uDm0TqAn4-asEQf-69" parent="1">
          <mxGeometry relative="1" as="geometry">
            <mxPoint x="919.67" y="220" as="targetPoint" />
          </mxGeometry>
        </mxCell>
        <mxCell id="youw9uDm0TqAn4-asEQf-69" value="" style="ellipse;whiteSpace=wrap;html=1;aspect=fixed;" vertex="1" parent="1">
          <mxGeometry x="799.67" y="200" width="40" height="40" as="geometry" />
        </mxCell>
        <mxCell id="youw9uDm0TqAn4-asEQf-70" value="" style="endArrow=none;html=1;strokeWidth=3;" edge="1" parent="1">
          <mxGeometry width="50" height="50" relative="1" as="geometry">
            <mxPoint x="719.67" y="240" as="sourcePoint" />
            <mxPoint x="719.67" y="200" as="targetPoint" />
          </mxGeometry>
        </mxCell>
        <mxCell id="youw9uDm0TqAn4-asEQf-71" value="" style="ellipse;whiteSpace=wrap;html=1;aspect=fixed;" vertex="1" parent="1">
          <mxGeometry x="800" y="140" width="40" height="40" as="geometry" />
        </mxCell>
        <mxCell id="youw9uDm0TqAn4-asEQf-72" value="" style="endArrow=none;html=1;strokeWidth=3;" edge="1" parent="1">
          <mxGeometry width="50" height="50" relative="1" as="geometry">
            <mxPoint x="919.67" y="240" as="sourcePoint" />
            <mxPoint x="919.67" y="200" as="targetPoint" />
          </mxGeometry>
        </mxCell>
        <mxCell id="youw9uDm0TqAn4-asEQf-73" style="edgeStyle=none;rounded=0;orthogonalLoop=1;jettySize=auto;html=1;strokeWidth=1;" edge="1" target="youw9uDm0TqAn4-asEQf-71" parent="1">
          <mxGeometry relative="1" as="geometry">
            <mxPoint x="929.67" y="230.0000000000001" as="targetPoint" />
            <mxPoint x="919.67" y="220" as="sourcePoint" />
          </mxGeometry>
        </mxCell>
        <mxCell id="youw9uDm0TqAn4-asEQf-74" style="edgeStyle=none;rounded=0;orthogonalLoop=1;jettySize=auto;html=1;strokeWidth=1;" edge="1" source="youw9uDm0TqAn4-asEQf-71" parent="1">
          <mxGeometry relative="1" as="geometry">
            <mxPoint x="719.67" y="220" as="targetPoint" />
            <mxPoint x="929.67" y="230.0000000000001" as="sourcePoint" />
          </mxGeometry>
        </mxCell>
        <mxCell id="youw9uDm0TqAn4-asEQf-75" value="" style="endArrow=classic;html=1;strokeWidth=1;" edge="1" parent="1">
          <mxGeometry width="50" height="50" relative="1" as="geometry">
            <mxPoint x="719.67" y="219.58000000000015" as="sourcePoint" />
            <mxPoint x="799.67" y="219.58000000000015" as="targetPoint" />
          </mxGeometry>
        </mxCell>
        <mxCell id="youw9uDm0TqAn4-asEQf-78" value="" style="endArrow=classic;html=1;strokeWidth=1;" edge="1" parent="1">
          <mxGeometry width="50" height="50" relative="1" as="geometry">
            <mxPoint x="120" y="419.5" as="sourcePoint" />
            <mxPoint x="200" y="419.5" as="targetPoint" />
          </mxGeometry>
        </mxCell>
        <mxCell id="youw9uDm0TqAn4-asEQf-79" style="edgeStyle=none;rounded=0;orthogonalLoop=1;jettySize=auto;html=1;strokeWidth=1;" edge="1" parent="1">
          <mxGeometry relative="1" as="geometry">
            <mxPoint x="320" y="419.5000000000001" as="targetPoint" />
            <mxPoint x="239.99900007499616" y="419.69999000074995" as="sourcePoint" />
          </mxGeometry>
        </mxCell>
        <mxCell id="youw9uDm0TqAn4-asEQf-80" style="edgeStyle=none;rounded=0;orthogonalLoop=1;jettySize=auto;html=1;strokeWidth=1;" edge="1" parent="1" target="youw9uDm0TqAn4-asEQf-13">
          <mxGeometry relative="1" as="geometry">
            <mxPoint x="445.55586907408633" y="497.4296007482135" as="targetPoint" />
            <mxPoint x="520" y="420" as="sourcePoint" />
          </mxGeometry>
        </mxCell>
        <mxCell id="youw9uDm0TqAn4-asEQf-81" style="edgeStyle=none;rounded=0;orthogonalLoop=1;jettySize=auto;html=1;strokeWidth=1;" edge="1" parent="1" target="youw9uDm0TqAn4-asEQf-13">
          <mxGeometry relative="1" as="geometry">
            <mxPoint x="445.6173761888606" y="202.49390095108845" as="targetPoint" />
            <mxPoint x="520" y="260" as="sourcePoint" />
          </mxGeometry>
        </mxCell>
        <mxCell id="youw9uDm0TqAn4-asEQf-85" style="edgeStyle=none;rounded=0;orthogonalLoop=1;jettySize=auto;html=1;strokeWidth=1;" edge="1" parent="1" source="youw9uDm0TqAn4-asEQf-27">
          <mxGeometry relative="1" as="geometry">
            <mxPoint x="920" y="380" as="targetPoint" />
            <mxPoint x="958.5695338177052" y="367.427813527082" as="sourcePoint" />
          </mxGeometry>
        </mxCell>
        <mxCell id="youw9uDm0TqAn4-asEQf-86" style="edgeStyle=none;rounded=0;orthogonalLoop=1;jettySize=auto;html=1;strokeWidth=1;" edge="1" parent="1" source="youw9uDm0TqAn4-asEQf-27">
          <mxGeometry relative="1" as="geometry">
            <mxPoint x="920" y="500" as="targetPoint" />
            <mxPoint x="950.5999788000636" y="376.9599660801016" as="sourcePoint" />
          </mxGeometry>
        </mxCell>
        <mxCell id="youw9uDm0TqAn4-asEQf-87" style="edgeStyle=none;rounded=0;orthogonalLoop=1;jettySize=auto;html=1;strokeWidth=1;" edge="1" parent="1" source="youw9uDm0TqAn4-asEQf-27">
          <mxGeometry relative="1" as="geometry">
            <mxPoint x="920" y="220" as="targetPoint" />
            <mxPoint x="952.8036879932897" y="344.6355744080522" as="sourcePoint" />
          </mxGeometry>
        </mxCell>
        <mxCell id="youw9uDm0TqAn4-asEQf-90" value="Llega espectador por calle 1" style="text;html=1;strokeColor=none;fillColor=none;align=right;verticalAlign=middle;whiteSpace=wrap;rounded=0;fontSize=11;" vertex="1" parent="1">
          <mxGeometry x="20" y="240" width="90" height="40" as="geometry" />
        </mxCell>
        <mxCell id="youw9uDm0TqAn4-asEQf-91" value="Llega espectador por calle 2" style="text;html=1;strokeColor=none;fillColor=none;align=right;verticalAlign=middle;whiteSpace=wrap;rounded=0;fontSize=11;" vertex="1" parent="1">
          <mxGeometry x="20" y="400" width="90" height="40" as="geometry" />
        </mxCell>
        <mxCell id="youw9uDm0TqAn4-asEQf-92" value="Espectador calle 2 espera ser revisado" style="text;html=1;strokeColor=none;fillColor=none;align=center;verticalAlign=middle;whiteSpace=wrap;rounded=0;fontSize=11;" vertex="1" parent="1">
          <mxGeometry x="160" y="440" width="120" height="40" as="geometry" />
        </mxCell>
        <mxCell id="youw9uDm0TqAn4-asEQf-93" value="Espectador calle 1 espera ser revisado" style="text;html=1;strokeColor=none;fillColor=none;align=center;verticalAlign=middle;whiteSpace=wrap;rounded=0;fontSize=11;" vertex="1" parent="1">
          <mxGeometry x="160" y="200" width="120" height="40" as="geometry" />
        </mxCell>
        <mxCell id="youw9uDm0TqAn4-asEQf-94" value="&lt;div&gt;Espectador calle 1&lt;/div&gt;&lt;div&gt;pasa a ser revisado&lt;/div&gt;" style="text;html=1;strokeColor=none;fillColor=none;align=right;verticalAlign=middle;whiteSpace=wrap;rounded=0;fontSize=11;" vertex="1" parent="1">
          <mxGeometry x="230" y="280" width="110" height="40" as="geometry" />
        </mxCell>
        <mxCell id="youw9uDm0TqAn4-asEQf-95" value="&lt;div&gt;Espectador calle 2&lt;/div&gt;&lt;div&gt;pasa a ser revisado&lt;/div&gt;" style="text;html=1;strokeColor=none;fillColor=none;align=right;verticalAlign=middle;whiteSpace=wrap;rounded=0;fontSize=11;" vertex="1" parent="1">
          <mxGeometry x="230" y="360" width="110" height="40" as="geometry" />
        </mxCell>
        <mxCell id="youw9uDm0TqAn4-asEQf-97" value="" style="ellipse;whiteSpace=wrap;html=1;aspect=fixed;fillColor=#000000;strokeColor=none;" vertex="1" parent="1">
          <mxGeometry x="409.5" y="183" width="7" height="7" as="geometry" />
        </mxCell>
        <mxCell id="youw9uDm0TqAn4-asEQf-98" value="" style="ellipse;whiteSpace=wrap;html=1;aspect=fixed;fillColor=#000000;strokeColor=none;" vertex="1" parent="1">
          <mxGeometry x="425" y="183.5" width="7" height="7" as="geometry" />
        </mxCell>
        <mxCell id="youw9uDm0TqAn4-asEQf-99" value="" style="ellipse;whiteSpace=wrap;html=1;aspect=fixed;fillColor=#000000;strokeColor=none;" vertex="1" parent="1">
          <mxGeometry x="423.5" y="169.5" width="7" height="7" as="geometry" />
        </mxCell>
        <mxCell id="youw9uDm0TqAn4-asEQf-100" style="edgeStyle=none;rounded=0;orthogonalLoop=1;jettySize=auto;html=1;strokeWidth=1;exitX=0;exitY=1;exitDx=0;exitDy=0;" edge="1" parent="1" source="youw9uDm0TqAn4-asEQf-7">
          <mxGeometry relative="1" as="geometry">
            <mxPoint x="320" y="260" as="targetPoint" />
            <mxPoint x="409.8800000000001" y="193.60000000000002" as="sourcePoint" />
          </mxGeometry>
        </mxCell>
        <mxCell id="youw9uDm0TqAn4-asEQf-101" style="edgeStyle=none;rounded=0;orthogonalLoop=1;jettySize=auto;html=1;strokeWidth=1;entryX=0.984;entryY=0.633;entryDx=0;entryDy=0;entryPerimeter=0;" edge="1" parent="1" target="youw9uDm0TqAn4-asEQf-7">
          <mxGeometry relative="1" as="geometry">
            <mxPoint x="439.997376188863" y="183.50390095109037" as="targetPoint" />
            <mxPoint x="520" y="250" as="sourcePoint" />
          </mxGeometry>
        </mxCell>
        <mxCell id="youw9uDm0TqAn4-asEQf-106" style="edgeStyle=none;rounded=0;orthogonalLoop=1;jettySize=auto;html=1;strokeWidth=1;" edge="1" parent="1">
          <mxGeometry relative="1" as="geometry">
            <mxPoint x="439.4982607895103" y="495.0049509762013" as="targetPoint" />
            <mxPoint x="520" y="430" as="sourcePoint" />
          </mxGeometry>
        </mxCell>
        <mxCell id="youw9uDm0TqAn4-asEQf-107" style="edgeStyle=none;rounded=0;orthogonalLoop=1;jettySize=auto;html=1;strokeWidth=1;exitX=0.006;exitY=0.383;exitDx=0;exitDy=0;exitPerimeter=0;" edge="1" parent="1" source="youw9uDm0TqAn4-asEQf-41">
          <mxGeometry relative="1" as="geometry">
            <mxPoint x="320" y="430" as="targetPoint" />
            <mxPoint x="408.0037279654414" y="505.002304730778" as="sourcePoint" />
          </mxGeometry>
        </mxCell>
        <mxCell id="youw9uDm0TqAn4-asEQf-108" value="" style="ellipse;whiteSpace=wrap;html=1;aspect=fixed;fillColor=#000000;strokeColor=none;" vertex="1" parent="1">
          <mxGeometry x="407.5" y="489.25" width="7" height="7" as="geometry" />
        </mxCell>
        <mxCell id="youw9uDm0TqAn4-asEQf-109" value="" style="ellipse;whiteSpace=wrap;html=1;aspect=fixed;fillColor=#000000;strokeColor=none;" vertex="1" parent="1">
          <mxGeometry x="409" y="503.25" width="7" height="7" as="geometry" />
        </mxCell>
        <mxCell id="youw9uDm0TqAn4-asEQf-110" value="" style="ellipse;whiteSpace=wrap;html=1;aspect=fixed;fillColor=#000000;strokeColor=none;" vertex="1" parent="1">
          <mxGeometry x="423" y="489.75" width="7" height="7" as="geometry" />
        </mxCell>
        <mxCell id="youw9uDm0TqAn4-asEQf-111" value="" style="ellipse;whiteSpace=wrap;html=1;aspect=fixed;fillColor=#000000;strokeColor=none;" vertex="1" parent="1">
          <mxGeometry x="424.5" y="503.75" width="7" height="7" as="geometry" />
        </mxCell>
        <mxCell id="youw9uDm0TqAn4-asEQf-112" value="Revisando espectador calle 1" style="text;html=1;strokeColor=none;fillColor=none;align=center;verticalAlign=middle;whiteSpace=wrap;rounded=0;fontSize=11;" vertex="1" parent="1">
          <mxGeometry x="370" y="280" width="100" height="40" as="geometry" />
        </mxCell>
        <mxCell id="youw9uDm0TqAn4-asEQf-113" value="Revisando espectador calle 2" style="text;html=1;strokeColor=none;fillColor=none;align=center;verticalAlign=middle;whiteSpace=wrap;rounded=0;fontSize=11;" vertex="1" parent="1">
          <mxGeometry x="370" y="360" width="100" height="40" as="geometry" />
        </mxCell>
        <mxCell id="youw9uDm0TqAn4-asEQf-114" value="&lt;div&gt;Inspector&lt;/div&gt;&lt;div&gt;calle 1 libre&lt;/div&gt;" style="text;html=1;strokeColor=none;fillColor=none;align=center;verticalAlign=middle;whiteSpace=wrap;rounded=0;fontSize=11;" vertex="1" parent="1">
          <mxGeometry x="370" y="120" width="100" height="40" as="geometry" />
        </mxCell>
        <mxCell id="youw9uDm0TqAn4-asEQf-115" value="&lt;div&gt;Inspector&lt;/div&gt;&lt;div&gt;calle 2 libre&lt;/div&gt;" style="text;html=1;strokeColor=none;fillColor=none;align=center;verticalAlign=middle;whiteSpace=wrap;rounded=0;fontSize=11;" vertex="1" parent="1">
          <mxGeometry x="370" y="520" width="100" height="40" as="geometry" />
        </mxCell>
        <mxCell id="youw9uDm0TqAn4-asEQf-116" value="&lt;div&gt;Termina revisión&lt;/div&gt;&lt;div&gt;calle 2&lt;br&gt;&lt;/div&gt;" style="text;html=1;strokeColor=none;fillColor=none;align=left;verticalAlign=middle;whiteSpace=wrap;rounded=0;fontSize=11;" vertex="1" parent="1">
          <mxGeometry x="530" y="420" width="90" height="40" as="geometry" />
        </mxCell>
        <mxCell id="youw9uDm0TqAn4-asEQf-117" value="&lt;div&gt;Termina revisión&lt;/div&gt;&lt;div&gt;calle 1&lt;br&gt;&lt;/div&gt;" style="text;html=1;strokeColor=none;fillColor=none;align=left;verticalAlign=middle;whiteSpace=wrap;rounded=0;fontSize=11;" vertex="1" parent="1">
          <mxGeometry x="530" y="230" width="90" height="40" as="geometry" />
        </mxCell>
        <mxCell id="youw9uDm0TqAn4-asEQf-118" value="&lt;div&gt;Espectadores&lt;/div&gt;&lt;div&gt;en cola a puertas&lt;br&gt;&lt;/div&gt;" style="text;html=1;strokeColor=none;fillColor=none;align=right;verticalAlign=middle;whiteSpace=wrap;rounded=0;fontSize=11;" vertex="1" parent="1">
          <mxGeometry x="500" y="320" width="90" height="40" as="geometry" />
        </mxCell>
        <mxCell id="youw9uDm0TqAn4-asEQf-119" value="&lt;div&gt;Espectador&lt;/div&gt;&lt;div&gt;pasa a puerta A&lt;br&gt;&lt;/div&gt;" style="text;html=1;strokeColor=none;fillColor=none;align=right;verticalAlign=middle;whiteSpace=wrap;rounded=0;fontSize=11;" vertex="1" parent="1">
          <mxGeometry x="620" y="180" width="90" height="40" as="geometry" />
        </mxCell>
        <mxCell id="youw9uDm0TqAn4-asEQf-121" value="" style="ellipse;whiteSpace=wrap;html=1;aspect=fixed;fillColor=#000000;strokeColor=none;" vertex="1" parent="1">
          <mxGeometry x="817.33" y="156.5" width="7" height="7" as="geometry" />
        </mxCell>
        <mxCell id="youw9uDm0TqAn4-asEQf-122" value="" style="ellipse;whiteSpace=wrap;html=1;aspect=fixed;fillColor=#000000;strokeColor=none;" vertex="1" parent="1">
          <mxGeometry x="814.8399999999999" y="556.5" width="7" height="7" as="geometry" />
        </mxCell>
        <mxCell id="youw9uDm0TqAn4-asEQf-123" value="" style="ellipse;whiteSpace=wrap;html=1;aspect=fixed;fillColor=#000000;strokeColor=none;" vertex="1" parent="1">
          <mxGeometry x="816.5" y="316.5" width="7" height="7" as="geometry" />
        </mxCell>
        <mxCell id="youw9uDm0TqAn4-asEQf-125" value="&lt;div&gt;Espectador pasa a puerta B&lt;br&gt;&lt;/div&gt;" style="text;html=1;strokeColor=none;fillColor=none;align=center;verticalAlign=middle;whiteSpace=wrap;rounded=0;fontSize=11;" vertex="1" parent="1">
          <mxGeometry x="670" y="320" width="90" height="40" as="geometry" />
        </mxCell>
        <mxCell id="youw9uDm0TqAn4-asEQf-126" value="&lt;div&gt;Espectador pasa a puerta C&lt;br&gt;&lt;/div&gt;" style="text;html=1;strokeColor=none;fillColor=none;align=right;verticalAlign=middle;whiteSpace=wrap;rounded=0;fontSize=11;" vertex="1" parent="1">
          <mxGeometry x="620" y="490" width="90" height="40" as="geometry" />
        </mxCell>
        <mxCell id="youw9uDm0TqAn4-asEQf-127" value="&lt;div&gt;Detector puerta C&lt;/div&gt;&lt;div&gt;libre&lt;br&gt;&lt;/div&gt;" style="text;html=1;strokeColor=none;fillColor=none;align=left;verticalAlign=middle;whiteSpace=wrap;rounded=0;fontSize=11;" vertex="1" parent="1">
          <mxGeometry x="849.17" y="540" width="90" height="40" as="geometry" />
        </mxCell>
        <mxCell id="youw9uDm0TqAn4-asEQf-128" value="&lt;div&gt;Detector puerta B&lt;/div&gt;&lt;div&gt;libre&lt;br&gt;&lt;/div&gt;" style="text;html=1;strokeColor=none;fillColor=none;align=left;verticalAlign=middle;whiteSpace=wrap;rounded=0;fontSize=11;" vertex="1" parent="1">
          <mxGeometry x="850.83" y="300" width="90" height="40" as="geometry" />
        </mxCell>
        <mxCell id="youw9uDm0TqAn4-asEQf-129" value="&lt;div&gt;Detector puerta A&lt;/div&gt;&lt;div&gt;libre&lt;br&gt;&lt;/div&gt;" style="text;html=1;strokeColor=none;fillColor=none;align=left;verticalAlign=middle;whiteSpace=wrap;rounded=0;fontSize=11;" vertex="1" parent="1">
          <mxGeometry x="850.33" y="140" width="90" height="40" as="geometry" />
        </mxCell>
        <mxCell id="youw9uDm0TqAn4-asEQf-130" value="&lt;div&gt;Espectador pasando por detector puerta B&lt;br&gt;&lt;/div&gt;" style="text;html=1;strokeColor=none;fillColor=none;align=center;verticalAlign=middle;whiteSpace=wrap;rounded=0;fontSize=11;" vertex="1" parent="1">
          <mxGeometry x="759.17" y="390" width="120" height="40" as="geometry" />
        </mxCell>
        <mxCell id="youw9uDm0TqAn4-asEQf-131" value="&lt;div&gt;Espectador pasando por detector puerta B&lt;br&gt;&lt;/div&gt;" style="text;html=1;strokeColor=none;fillColor=none;align=center;verticalAlign=middle;whiteSpace=wrap;rounded=0;fontSize=11;" vertex="1" parent="1">
          <mxGeometry x="760" y="230" width="120" height="40" as="geometry" />
        </mxCell>
        <mxCell id="youw9uDm0TqAn4-asEQf-132" value="&lt;div&gt;Espectador pasando por detector puerta C&lt;br&gt;&lt;/div&gt;" style="text;html=1;strokeColor=none;fillColor=none;align=center;verticalAlign=middle;whiteSpace=wrap;rounded=0;fontSize=11;" vertex="1" parent="1">
          <mxGeometry x="760.5" y="449.25" width="120" height="40" as="geometry" />
        </mxCell>
        <mxCell id="youw9uDm0TqAn4-asEQf-133" value="Espectador sale de puerta B" style="text;html=1;strokeColor=none;fillColor=none;align=left;verticalAlign=middle;whiteSpace=wrap;rounded=0;fontSize=11;" vertex="1" parent="1">
          <mxGeometry x="900" y="323.5" width="90" height="40" as="geometry" />
        </mxCell>
        <mxCell id="youw9uDm0TqAn4-asEQf-134" value="Espectador sale de puerta C" style="text;html=1;strokeColor=none;fillColor=none;align=left;verticalAlign=middle;whiteSpace=wrap;rounded=0;fontSize=11;" vertex="1" parent="1">
          <mxGeometry x="930" y="480" width="90" height="40" as="geometry" />
        </mxCell>
        <mxCell id="youw9uDm0TqAn4-asEQf-135" value="Espectador sale de puerta A" style="text;html=1;strokeColor=none;fillColor=none;align=left;verticalAlign=middle;whiteSpace=wrap;rounded=0;fontSize=11;" vertex="1" parent="1">
          <mxGeometry x="930" y="200" width="90" height="40" as="geometry" />
        </mxCell>
        <mxCell id="youw9uDm0TqAn4-asEQf-136" value="Espectador en camino a sector" style="text;html=1;strokeColor=none;fillColor=none;align=left;verticalAlign=middle;whiteSpace=wrap;rounded=0;fontSize=11;" vertex="1" parent="1">
          <mxGeometry x="1050" y="320" width="90" height="40" as="geometry" />
        </mxCell>
        <mxCell id="youw9uDm0TqAn4-asEQf-137" value="&lt;div&gt;Espectador llega&lt;/div&gt;&lt;div&gt;a sector N&lt;br&gt;&lt;/div&gt;" style="text;html=1;strokeColor=none;fillColor=none;align=left;verticalAlign=middle;whiteSpace=wrap;rounded=0;fontSize=11;" vertex="1" parent="1">
          <mxGeometry x="1130" y="240" width="90" height="40" as="geometry" />
        </mxCell>
        <mxCell id="youw9uDm0TqAn4-asEQf-138" value="&lt;div&gt;Espectador llega&lt;/div&gt;&lt;div&gt;a sector P&lt;br&gt;&lt;/div&gt;" style="text;html=1;strokeColor=none;fillColor=none;align=left;verticalAlign=middle;whiteSpace=wrap;rounded=0;fontSize=11;" vertex="1" parent="1">
          <mxGeometry x="1130" y="400" width="90" height="40" as="geometry" />
        </mxCell>
      </root>
    </mxGraphModel>
  </diagram>
</mxfile>
